<?xml version="1.0" encoding="utf-8"?>
<!-- Generator: Adobe Illustrator 23.0.3, SVG Export Plug-In . SVG Version: 6.00 Build 0)  -->
<svg version="1.1" id="Layer_1" xmlns="http://www.w3.org/2000/svg" xmlns:xlink="http://www.w3.org/1999/xlink" x="0px" y="0px"
	 viewBox="0 0 384.7 359.2" style="enable-background:new 0 0 384.7 359.2;" xml:space="preserve">
<style type="text/css">
	.st0{fill:#FFFFFF;}
</style>
<title>ArrowRight</title>
<path class="st0" d="M394.9,150.3h-0.7v-1.5h-17.5c-19.7-0.6-69.1-6.1-107-45.1c-38.5-39.7-40-88.2-39.6-102.1l0.3-10l-60-2l-0.3,10
	c-0.8,25.5,3,90.7,56.5,145.8c1.1,1.1,2.2,2.2,3.3,3.3H-10v61.6h239.8c-1.1,1.1-2.2,2.2-3.3,3.3c-53.4,55-57.3,120.3-56.5,145.8
	l0.3,10l60-2l-0.3-10c-0.5-13.9,1-62.3,39.6-102.1c37.8-39,87.3-44.5,107-45.1h17.5v-1.5h0.7l-0.4-29.3L394.9,150.3z"/>
</svg>
